<svg version="1.1" id="Layer_1" xmlns="http://www.w3.org/2000/svg" xmlns:xlink="http://www.w3.org/1999/xlink" x="0px" y="0px"
	 width="100%" viewBox="0 0 187 132" enable-background="new 0 0 187 132" xml:space="preserve">
<path fill="#010101" opacity="1.000000" stroke="none" 
	d="
M116.000000,133.000000 
	C77.333344,133.000000 39.166691,133.000000 1.000026,133.000000 
	C1.000017,89.000023 1.000017,45.000050 1.000009,1.000055 
	C63.333294,1.000037 125.666588,1.000037 187.999908,1.000018 
	C187.999939,44.999943 187.999939,88.999886 187.999969,132.999908 
	C164.166672,133.000000 140.333328,133.000000 116.000000,133.000000 
M133.949783,32.364952 
	C133.613190,31.917017 133.276596,31.469082 132.392563,30.761341 
	C131.944199,30.109280 131.495834,29.457218 130.887268,28.234381 
	C130.222107,27.507545 129.556961,26.780710 128.662201,25.564554 
	C128.236359,25.267096 127.810501,24.969639 127.402969,24.852030 
	C127.402969,24.852030 127.354111,24.679230 127.268860,24.280928 
	C127.268860,24.280928 126.963936,24.010866 126.686356,23.468111 
	C125.761246,22.700842 124.836128,21.933571 123.603004,20.884874 
	C123.603004,20.884874 123.198792,20.781494 122.887230,20.201868 
	C121.248367,19.171440 119.609497,18.141014 117.389069,16.846037 
	C116.655548,16.545193 115.922035,16.244350 114.840363,15.309020 
	C113.285461,14.851192 111.730568,14.393366 109.842239,13.232025 
	C107.597801,12.784413 105.353363,12.336802 102.776978,11.182517 
	C96.861031,11.185386 90.945084,11.188254 84.302330,11.161948 
	C83.875870,11.370961 83.449409,11.579974 82.514061,11.706618 
	C82.025597,11.864752 81.537132,12.022885 80.399910,12.127034 
	C79.603752,12.466197 78.807587,12.805360 77.291924,13.177075 
	C71.644653,17.052481 65.632332,20.511040 60.515530,24.992163 
	C58.212711,27.008892 56.763805,31.033131 56.648842,34.208801 
	C56.545570,37.061527 58.798809,39.999557 60.066444,43.669903 
	C61.948071,46.886425 61.470989,51.731144 66.399902,53.327682 
	C69.175919,45.921043 74.197197,39.066898 66.980576,31.084555 
	C66.620461,30.416140 66.260353,29.747723 65.793907,28.881939 
	C67.281197,28.603508 68.657310,28.345894 70.850990,28.268202 
	C72.235466,28.194185 73.619942,28.120167 75.812004,28.237991 
	C77.854134,28.237991 79.896255,28.237991 83.368744,28.237991 
	C80.809280,29.583773 79.475891,30.284874 77.832764,31.148838 
	C78.868713,33.242771 79.827972,35.181702 80.905556,37.842907 
	C81.637886,39.560684 82.370216,41.278465 83.042923,43.597397 
	C84.365150,46.388779 85.687370,49.180161 86.685471,52.614452 
	C87.652435,53.443657 88.619392,54.272861 89.325226,55.852474 
	C87.534340,60.575512 85.743446,65.298546 83.785545,70.462051 
	C82.701958,69.205673 82.268044,68.702576 81.894508,67.632782 
	C81.591522,66.953438 81.288544,66.274094 80.921066,64.789871 
	C78.983009,60.381840 77.044952,55.973804 75.183777,50.853752 
	C74.266823,49.451672 73.349869,48.049591 71.842834,45.745235 
	C68.651810,53.533657 65.885956,60.284363 62.774952,67.570183 
	C62.472469,68.357765 62.169987,69.145348 61.946747,69.939911 
	C61.946747,69.939911 61.927082,69.862831 61.389801,69.923721 
	C60.794254,69.323738 60.198708,68.723755 59.459671,67.491676 
	C59.318470,67.328148 59.177265,67.164619 58.974827,66.273979 
	C57.960857,63.847897 56.946888,61.421814 55.869236,58.278950 
	C53.953720,54.667240 52.038208,51.055534 50.122692,47.443825 
	C49.520084,47.670433 48.917480,47.897041 48.314873,48.123650 
	C48.314873,53.408367 48.314873,58.693089 48.273174,64.731262 
	C49.221615,67.816650 50.170055,70.902039 51.208675,74.677498 
	C52.443817,76.871056 53.678955,79.064606 55.089050,81.870598 
	C55.634186,82.493095 56.179317,83.115601 56.835091,84.363228 
	C58.221848,85.912041 59.608601,87.460846 61.283428,89.531372 
	C62.339005,90.377777 63.394585,91.224182 64.762703,92.672943 
	C65.163071,92.862083 65.563431,93.051224 65.877396,93.104446 
	C65.877396,93.104446 65.754333,93.208351 66.099602,93.756378 
	C67.538116,94.703133 68.976624,95.649887 70.926460,97.020622 
	C72.954536,97.955330 74.982605,98.890038 77.618408,100.090172 
	C78.059212,100.105232 78.500015,100.120293 79.180748,100.691719 
	C79.754349,100.861832 80.327950,101.031944 81.349342,101.865715 
	C90.845566,103.393036 100.301140,104.278641 109.439957,99.760834 
	C103.661545,99.760834 97.883141,99.760834 92.003464,99.095451 
	C92.020912,98.431625 92.038361,97.767792 92.869316,96.856438 
	C93.212914,93.905556 93.556519,90.954666 94.079659,87.196274 
	C94.120041,85.826309 94.160416,84.456352 94.940033,82.624619 
	C94.686928,77.715714 94.433815,72.806808 94.126289,67.056267 
	C94.053658,65.372810 93.981018,63.689362 94.086243,61.243187 
	C93.347961,58.757339 96.230934,55.276627 92.066277,53.428368 
	C92.066277,53.428368 92.078056,53.111111 92.996597,53.052639 
	C98.637184,53.319008 104.277779,53.585377 109.462502,54.047714 
	C109.160873,54.236050 108.985420,54.506306 108.241074,55.270916 
	C107.881363,58.184513 107.521652,61.098114 107.038994,64.840324 
	C107.082047,66.232513 107.125107,67.624702 107.046478,69.795341 
	C106.826256,72.729004 107.547531,74.170570 110.533623,71.982605 
	C111.993500,70.912918 113.440666,69.825897 115.183998,69.267982 
	C115.486839,69.521210 115.789688,69.774429 116.127037,70.704208 
	C119.440102,74.557755 122.753174,78.411301 126.318916,82.844803 
	C127.355377,83.718651 128.391846,84.592491 129.644241,85.648384 
	C138.078079,76.680931 141.041519,65.947037 140.675354,53.339657 
	C140.520691,51.165482 140.366028,48.991310 140.083527,46.120510 
	C139.441895,44.374878 138.800262,42.629242 138.080872,40.159096 
	C136.746140,37.775635 135.411423,35.392170 134.008301,33.018078 
	C134.008301,33.018078 133.998535,32.949745 133.949783,32.364952 
M110.915451,80.480736 
	C110.762520,80.178101 110.521469,79.986069 110.011917,79.256042 
	C108.967857,77.941025 106.827530,76.054260 106.698441,78.844666 
	C106.417664,84.914536 107.439163,91.044647 108.251228,97.660164 
	C108.832474,97.734337 109.413712,97.808502 110.700722,98.150894 
	C115.652672,100.372543 117.857323,95.857201 121.719955,94.118950 
	C118.975464,90.770271 116.576210,87.842827 114.001183,84.291718 
	C113.009583,83.175102 112.017982,82.058487 110.915451,80.480736 
z"/>
<path fill="#8F8B90" opacity="1.000000" stroke="none" 
	d="
M60.995361,89.009659 
	C59.608601,87.460846 58.221848,85.912041 56.865891,83.623573 
	C58.268532,79.259796 59.640369,75.635666 61.245018,71.811722 
	C61.627583,71.028870 61.777332,70.445854 61.927086,69.862831 
	C61.927082,69.862831 61.946747,69.939911 62.228443,69.908493 
	C62.713459,68.929741 62.916779,67.982407 63.120102,67.035065 
	C65.885956,60.284363 68.651810,53.533657 71.842834,45.745235 
	C73.349869,48.049591 74.266823,49.451672 75.123909,51.622524 
	C74.727341,55.043873 74.815918,57.841488 73.970451,60.320553 
	C71.834625,66.583275 69.473579,72.788185 66.816826,78.847023 
	C65.258034,82.401939 62.960564,85.632950 60.995361,89.009659 
z"/>
<path fill="#B89360" opacity="1.000000" stroke="none" 
	d="
M60.012539,42.899960 
	C58.798809,39.999557 56.545570,37.061527 56.648842,34.208801 
	C56.763805,31.033131 58.212711,27.008892 60.515530,24.992163 
	C65.632332,20.511040 71.644653,17.052481 77.631165,13.513849 
	C75.324738,18.596506 72.679077,23.342392 70.033417,28.088278 
	C68.657310,28.345894 67.281197,28.603508 65.793907,28.881939 
	C66.260353,29.747723 66.620461,30.416140 66.964317,31.852776 
	C64.636223,36.047318 62.324379,39.473640 60.012539,42.899960 
M64.544479,28.352207 
	C64.463867,28.519949 64.383263,28.687691 64.302650,28.855436 
	C64.494156,28.817118 64.685654,28.778799 64.544479,28.352207 
z"/>
<path fill="#B8B7B9" opacity="1.000000" stroke="none" 
	d="
M92.025780,53.743233 
	C96.230934,55.276627 93.347961,58.757339 93.632179,61.636250 
	C92.234833,62.830528 90.814705,63.446743 90.421120,64.461220 
	C85.861252,76.214256 81.456543,88.027481 77.010681,99.824745 
	C74.982605,98.890038 72.954536,97.955330 70.819466,96.659775 
	C70.712471,96.298927 71.003914,95.995468 71.343048,95.925354 
	C77.367607,87.463768 81.408531,78.467697 81.860519,68.166306 
	C81.854561,68.178276 81.834137,68.199478 81.834137,68.199478 
	C82.268044,68.702576 82.701958,69.205673 83.785545,70.462051 
	C85.743446,65.298546 87.534340,60.575512 89.638924,55.238914 
	C90.643677,54.331314 91.334724,54.037273 92.025780,53.743233 
z"/>
<path fill="#D3A456" opacity="1.000000" stroke="none" 
	d="
M115.188515,15.943508 
	C115.922035,16.244350 116.655548,16.545193 117.478447,17.240025 
	C115.217239,20.748989 112.704750,23.756369 110.548744,27.000656 
	C105.587952,34.465515 100.800568,42.045605 95.754723,49.870625 
	C97.428680,50.652336 98.702415,51.247147 99.563477,51.902901 
	C96.822838,51.625771 94.494865,51.287701 92.113464,50.567852 
	C95.077461,43.455448 98.094894,36.724823 101.485458,29.976704 
	C102.575714,29.065657 103.350533,28.211960 104.000137,27.271755 
	C107.065475,22.835171 107.866188,16.175358 115.188515,15.943508 
z"/>
<path fill="#9B999E" opacity="1.000000" stroke="none" 
	d="
M61.139397,89.270515 
	C62.960564,85.632950 65.258034,82.401939 66.816826,78.847023 
	C69.473579,72.788185 71.834625,66.583275 73.970451,60.320553 
	C74.815918,57.841488 74.727341,55.043873 75.085464,51.978531 
	C77.044952,55.973804 78.983009,60.381840 80.536263,65.278084 
	C79.146469,66.776848 77.737816,67.610298 77.203789,68.827484 
	C74.323486,75.392418 71.732010,82.083809 68.871750,88.657982 
	C68.151474,90.313499 66.810211,91.698845 65.754333,93.208351 
	C65.754333,93.208351 65.877396,93.104446 65.747734,92.888794 
	C65.228775,92.472282 64.839470,92.271431 64.450165,92.070587 
	C63.394585,91.224182 62.339005,90.377777 61.139397,89.270515 
z"/>
<path fill="#EBCF9B" opacity="1.000000" stroke="none" 
	d="
M80.787239,37.120636 
	C79.827972,35.181702 78.868713,33.242771 77.832764,31.148838 
	C79.475891,30.284874 80.809280,29.583773 83.368744,28.237991 
	C79.896255,28.237991 77.854134,28.237991 75.451782,27.783115 
	C77.708412,22.576241 80.325264,17.824244 82.961609,12.858316 
	C83.016533,12.360303 83.030479,12.075170 83.022949,11.788988 
	C83.449409,11.579974 83.875870,11.370961 84.994576,11.403185 
	C88.812607,11.775652 91.938393,11.906882 95.000000,12.389315 
	C90.219627,20.867222 85.503433,28.993931 80.787239,37.120636 
z"/>
<path fill="#BB8942" opacity="1.000000" stroke="none" 
	d="
M99.976143,51.841957 
	C98.702415,51.247147 97.428680,50.652336 95.754723,49.870625 
	C100.800568,42.045605 105.587952,34.465515 110.548744,27.000656 
	C112.704750,23.756369 115.217239,20.748989 117.769226,17.372299 
	C119.609497,18.141014 121.248367,19.171440 122.989944,20.550293 
	C123.092659,20.898716 122.985435,21.014843 122.624954,21.026661 
	C121.439529,21.503189 120.298752,21.760742 119.837486,22.463997 
	C113.857773,31.580784 107.974632,40.760910 102.032547,49.978699 
	C103.256142,50.766106 104.076355,51.293926 104.488113,51.876259 
	C102.711823,51.901169 101.343979,51.871563 99.976143,51.841957 
z"/>
<path fill="#BE8C44" opacity="1.000000" stroke="none" 
	d="
M114.893585,68.746719 
	C113.440666,69.825897 111.993500,70.912918 110.533623,71.982605 
	C107.547531,74.170570 106.826256,72.729004 107.428635,69.325142 
	C108.283958,68.416634 108.868210,68.051811 109.213943,67.529198 
	C116.663094,56.268814 124.095146,44.997005 131.464905,33.684677 
	C131.675125,33.362003 131.168365,32.572239 130.996521,31.600788 
	C131.013885,30.402586 131.030670,29.603870 131.047455,28.805157 
	C131.495834,29.457218 131.944199,30.109280 132.726028,31.187878 
	C133.372513,32.059525 133.685516,32.504635 133.998535,32.949745 
	C133.998535,32.949745 134.008301,33.018078 134.085007,33.302605 
	C134.170258,34.168209 134.178802,34.749294 134.110168,35.727760 
	C131.029526,41.362747 128.026062,46.600349 124.764816,51.960266 
	C124.299400,52.392265 124.091759,52.701954 123.549438,53.083565 
	C121.515854,56.910450 119.816956,60.665417 117.968063,64.691345 
	C116.843239,66.223785 115.868408,67.485252 114.893585,68.746719 
z"/>
<path fill="#CBCBCD" opacity="1.000000" stroke="none" 
	d="
M140.230225,53.920547 
	C141.041519,65.947037 138.078079,76.680931 129.644241,85.648384 
	C128.391846,84.592491 127.355377,83.718651 126.200630,82.146667 
	C126.062637,80.633537 126.042931,79.818558 126.365456,78.930923 
	C128.587830,75.323723 130.922104,71.945946 132.212494,68.207825 
	C133.361252,64.879982 133.354187,61.153141 134.039001,57.311440 
	C136.223923,55.987164 138.227066,54.953854 140.230225,53.920547 
z"/>
<path fill="#ECC988" opacity="1.000000" stroke="none" 
	d="
M80.846397,37.481773 
	C85.503433,28.993931 90.219627,20.867222 95.431374,12.374727 
	C97.963783,12.015692 100.000648,12.022444 101.981552,12.379503 
	C101.030045,14.248411 99.976402,15.697471 99.271469,17.299923 
	C97.751244,20.755686 96.410164,24.290255 94.640488,27.866373 
	C93.211517,28.250559 92.137848,28.560947 90.916557,29.205074 
	C88.213478,34.024624 85.658012,38.510433 83.102547,42.996243 
	C82.370216,41.278465 81.637886,39.560684 80.846397,37.481773 
z"/>
<path fill="#9A6527" opacity="1.000000" stroke="none" 
	d="
M123.911011,21.166302 
	C124.836128,21.933571 125.761246,22.700842 126.694092,23.859383 
	C126.919258,24.393513 127.136688,24.536371 127.354111,24.679230 
	C127.354111,24.679230 127.402969,24.852030 127.244667,25.132193 
	C125.670479,27.845444 124.268661,30.286852 122.835945,32.709988 
	C119.232506,38.804443 115.615120,44.890656 112.001343,50.989014 
	C111.999367,50.997860 111.995888,51.015633 111.594223,51.008163 
	C109.637856,50.894905 108.083168,50.789116 106.040680,50.650139 
	C106.639732,49.402054 106.865929,48.812778 107.186554,48.280380 
	C112.450890,39.539253 117.727135,30.805302 123.192871,21.964811 
	C123.612122,21.667944 123.787445,21.436749 123.911011,21.166302 
z"/>
<path fill="#180E08" opacity="1.000000" stroke="none" 
	d="
M140.452789,53.630100 
	C138.227066,54.953854 136.223923,55.987164 133.719696,57.423298 
	C131.782166,58.790718 130.345734,59.755318 128.587128,60.852325 
	C124.207474,63.999039 120.150002,67.013344 116.092529,70.027649 
	C115.789688,69.774429 115.486839,69.521210 115.038788,69.007355 
	C115.868408,67.485252 116.843239,66.223785 118.303040,64.569473 
	C120.629112,62.787022 122.472992,61.401054 124.310745,60.007000 
	C127.989090,57.216728 127.872177,55.323006 123.884125,53.011642 
	C124.091759,52.701954 124.299400,52.392265 125.137665,52.019131 
	C126.518471,51.901978 127.268661,51.848274 128.476868,51.854908 
	C132.564438,51.915249 136.194000,51.915249 139.845184,51.915249 
	C139.845184,50.067120 139.845184,48.589027 139.936722,47.037479 
	C140.028259,46.964020 140.211365,46.817135 140.211365,46.817135 
	C140.366028,48.991310 140.520691,51.165482 140.452789,53.630100 
z"/>
<path fill="#E7BF72" opacity="1.000000" stroke="none" 
	d="
M83.072739,43.296822 
	C85.658012,38.510433 88.213478,34.024624 91.217339,29.428505 
	C95.307755,30.462507 95.872940,32.782787 94.502869,36.120327 
	C92.632896,40.675636 91.024612,45.338413 89.152702,49.892876 
	C88.805840,50.736813 87.742340,51.286205 87.009590,51.971542 
	C85.687370,49.180161 84.365150,46.388779 83.072739,43.296822 
z"/>
<path fill="#E2C897" opacity="1.000000" stroke="none" 
	d="
M60.039490,43.284931 
	C62.324379,39.473640 64.636223,36.047318 66.997559,32.229290 
	C74.197197,39.066898 69.175919,45.921043 66.399902,53.327682 
	C61.470989,51.731144 61.948071,46.886425 60.039490,43.284931 
z"/>
<path fill="#C2C0C3" opacity="1.000000" stroke="none" 
	d="
M77.314545,99.957458 
	C81.456543,88.027481 85.861252,76.214256 90.421120,64.461220 
	C90.814705,63.446743 92.234833,62.830528 93.543243,62.017609 
	C93.981018,63.689362 94.053658,65.372810 93.897110,67.662094 
	C93.442070,68.843361 93.216194,69.418785 92.645538,70.068787 
	C88.196953,79.757057 84.093147,89.370773 79.766968,99.128433 
	C79.343338,99.560043 79.142082,99.847702 78.940826,100.135361 
	C78.500015,100.120293 78.059212,100.105232 77.314545,99.957458 
z"/>
<path fill="#E4E4E5" opacity="1.000000" stroke="none" 
	d="
M116.109787,70.365929 
	C120.150002,67.013344 124.207474,63.999039 128.638092,61.237587 
	C128.679001,63.978378 128.425919,66.480125 127.995209,68.950897 
	C127.408913,72.314171 126.686996,75.653801 126.023224,79.003571 
	C126.042931,79.818558 126.062637,80.633537 126.074295,81.856689 
	C122.753174,78.411301 119.440102,74.557755 116.109787,70.365929 
z"/>
<path fill="#B3803B" opacity="1.000000" stroke="none" 
	d="
M130.995926,32.000275 
	C131.168365,32.572239 131.675125,33.362003 131.464905,33.684677 
	C124.095146,44.997005 116.663094,56.268814 109.213943,67.529198 
	C108.868210,68.051811 108.283958,68.416634 107.489479,68.935913 
	C107.125107,67.624702 107.082047,66.232513 107.421265,64.346107 
	C109.203476,61.568115 110.603409,59.284340 112.004440,56.622372 
	C111.998146,55.487598 111.990746,54.731014 111.991821,53.987461 
	C112.000305,54.000488 111.974678,53.982796 112.232239,53.992104 
	C112.661629,54.002354 112.833443,54.003292 113.350716,53.956837 
	C115.489227,51.886444 117.400581,49.955040 119.051926,47.822308 
	C123.097168,42.597786 127.022408,37.280334 130.995926,32.000275 
z"/>
<path fill="#251709" opacity="1.000000" stroke="none" 
	d="
M86.847534,52.292999 
	C87.742340,51.286205 88.805840,50.736813 89.152702,49.892876 
	C91.024612,45.338413 92.632896,40.675636 94.502869,36.120327 
	C95.872940,32.782787 95.307755,30.462507 91.364952,29.094767 
	C92.137848,28.560947 93.211517,28.250559 95.052940,27.932009 
	C97.211014,27.882318 98.601349,27.840790 100.295654,27.946985 
	C100.770531,28.727871 100.941422,29.361034 101.112320,29.994196 
	C98.094894,36.724823 95.077461,43.455448 91.882156,50.722378 
	C91.828873,51.876160 91.953461,52.493633 92.078056,53.111111 
	C92.078056,53.111111 92.066277,53.428368 92.046028,53.585800 
	C91.334724,54.037273 90.643677,54.331314 89.769485,54.863708 
	C88.619392,54.272861 87.652435,53.443657 86.847534,52.292999 
z"/>
<path fill="#E2E2E3" opacity="1.000000" stroke="none" 
	d="
M114.176964,84.915390 
	C116.576210,87.842827 118.975464,90.770271 121.719955,94.118950 
	C117.857323,95.857201 115.652672,100.372543 110.309830,97.687515 
	C110.987213,93.111221 112.055504,88.998322 113.386917,84.898743 
	C113.825684,84.913185 114.001328,84.914291 114.176964,84.915390 
z"/>
<path fill="#AB7634" opacity="1.000000" stroke="none" 
	d="
M130.996521,31.600788 
	C127.022408,37.280334 123.097168,42.597786 119.051926,47.822308 
	C117.400581,49.955040 115.489227,51.886444 113.258530,53.767418 
	C112.668388,53.383167 112.468246,53.190411 112.156433,52.792667 
	C112.056358,52.367031 112.020317,52.195858 111.989304,51.772438 
	C111.994843,51.352001 111.995361,51.183819 111.995888,51.015633 
	C111.995888,51.015633 111.999367,50.997860 112.346573,50.948242 
	C118.093124,42.617043 123.492462,34.335457 128.891800,26.053871 
	C129.556961,26.780710 130.222107,27.507545 130.967361,28.519768 
	C131.030670,29.603870 131.013885,30.402586 130.996521,31.600788 
z"/>
<path fill="#D5D4D7" opacity="1.000000" stroke="none" 
	d="
M94.200798,83.086388 
	C94.160416,84.456352 94.120041,85.826309 93.626648,87.613159 
	C88.604858,90.076530 88.770950,94.412498 88.227264,98.593071 
	C88.315315,99.114441 88.257477,99.402573 87.907845,99.967316 
	C86.132858,100.164833 84.560875,100.067917 83.044235,99.610092 
	C84.785149,94.817055 86.257332,90.286591 88.237251,85.990105 
	C89.402122,83.462303 91.373299,81.306061 92.987656,79.362381 
	C93.395920,80.856834 93.798363,81.971611 94.200798,83.086388 
z"/>
<path fill="#E6BB6A" opacity="1.000000" stroke="none" 
	d="
M101.485443,29.976704 
	C100.941422,29.361034 100.770531,28.727871 100.297806,27.556244 
	C100.511879,20.292946 105.046906,14.464835 110.175667,13.935538 
	C111.730568,14.393366 113.285461,14.851192 115.014435,15.626265 
	C107.866188,16.175358 107.065475,22.835171 104.000137,27.271755 
	C103.350533,28.211960 102.575714,29.065657 101.485443,29.976704 
z"/>
<path fill="#EAC378" opacity="1.000000" stroke="none" 
	d="
M110.008957,13.583782 
	C105.046906,14.464835 100.511879,20.292946 99.993828,27.408520 
	C98.601349,27.840790 97.211014,27.882318 95.408234,27.858212 
	C96.410164,24.290255 97.751244,20.755686 99.271469,17.299923 
	C99.976402,15.697471 101.030045,14.248411 102.249466,12.346469 
	C102.751869,11.938481 102.930397,11.913836 103.108925,11.889191 
	C105.353363,12.336802 107.597801,12.784413 110.008957,13.583782 
z"/>
<path fill="#B4B0B1" opacity="1.000000" stroke="none" 
	d="
M48.314873,63.977806 
	C48.314873,58.693089 48.314873,53.408367 48.314873,48.123650 
	C48.917480,47.897041 49.520084,47.670433 50.122692,47.443825 
	C52.038208,51.055534 53.953720,54.667240 55.541344,58.651711 
	C52.913925,60.675583 50.614399,62.326694 48.314873,63.977806 
z"/>
<path fill="#B8B7B9" opacity="1.000000" stroke="none" 
	d="
M65.926971,93.482361 
	C66.810211,91.698845 68.151474,90.313499 68.871750,88.657982 
	C71.732010,82.083809 74.323486,75.392418 77.203789,68.827484 
	C77.737816,67.610298 79.146469,66.776848 80.568512,65.680527 
	C81.288544,66.274094 81.591522,66.953438 81.864319,67.916130 
	C81.834137,68.199478 81.854561,68.178276 81.519623,68.171463 
	C77.525330,76.486275 73.823883,84.790092 70.281891,93.161369 
	C69.979416,93.876259 70.738159,95.040154 71.003914,95.995468 
	C71.003914,95.995468 70.712471,96.298927 70.563805,96.447784 
	C68.976624,95.649887 67.538116,94.703133 65.926971,93.482361 
z"/>
<path fill="#D1AE79" opacity="1.000000" stroke="none" 
	d="
M82.942108,13.072247 
	C80.325264,17.824244 77.708412,22.576241 75.047989,27.687195 
	C73.619942,28.120167 72.235466,28.194185 70.442200,28.178240 
	C72.679077,23.342392 75.324738,18.596506 77.990913,13.497572 
	C78.807587,12.805360 79.603752,12.466197 80.908989,12.353196 
	C81.926079,12.743654 82.434097,12.907950 82.942108,13.072247 
z"/>
<path fill="#ABA7A8" opacity="1.000000" stroke="none" 
	d="
M48.294022,64.354538 
	C50.614399,62.326694 52.913925,60.675583 55.573189,59.010101 
	C56.946888,61.421814 57.960857,63.847897 58.742813,66.642914 
	C58.335732,67.016464 58.160667,67.021072 57.739521,67.015884 
	C57.493443,67.006073 57.001133,66.990814 56.990089,66.649246 
	C56.299873,63.149597 54.833336,64.230659 54.108078,66.045876 
	C53.097916,68.574173 52.674015,71.336700 51.779015,73.996681 
	C51.558830,73.994385 51.118496,73.987427 51.118496,73.987427 
	C50.170055,70.902039 49.221615,67.816650 48.294022,64.354538 
z"/>
<path fill="#EEEEEE" opacity="1.000000" stroke="none" 
	d="
M82.988884,99.971001 
	C84.560875,100.067917 86.132858,100.164833 88.299347,100.079918 
	C89.964149,99.852333 91.034439,99.806587 92.104736,99.760834 
	C97.883141,99.760834 103.661545,99.760834 109.439957,99.760834 
	C100.301140,104.278641 90.845566,103.393036 81.162392,101.237045 
	C80.984856,100.409164 80.994263,100.209961 81.334503,100.001457 
	C82.106522,99.985107 82.547707,99.978050 82.988884,99.971001 
z"/>
<path fill="#9E692B" opacity="1.000000" stroke="none" 
	d="
M128.777008,25.809212 
	C123.492462,34.335457 118.093124,42.617043 112.348557,50.939400 
	C115.615120,44.890656 119.232506,38.804443 122.835945,32.709988 
	C124.268661,30.286852 125.670479,27.845444 127.235504,25.042269 
	C127.810501,24.969639 128.236359,25.267096 128.777008,25.809212 
z"/>
<path fill="#9B999E" opacity="1.000000" stroke="none" 
	d="
M57.001133,66.990814 
	C57.001133,66.990814 57.493443,67.006073 57.951023,67.272125 
	C58.806789,67.733376 59.204971,67.928574 59.603157,68.123772 
	C60.198708,68.723755 60.794254,69.323738 61.658443,69.893280 
	C61.777332,70.445854 61.627583,71.028870 60.890762,71.859261 
	C58.507160,75.157135 56.710625,78.207649 54.914093,81.258163 
	C53.678955,79.064606 52.443817,76.871056 51.163586,74.332458 
	C51.118496,73.987427 51.558830,73.994385 52.116699,73.929512 
	C54.116760,71.573364 55.558949,69.282089 57.001133,66.990814 
z"/>
<path fill="#EAEAEA" opacity="1.000000" stroke="none" 
	d="
M113.123795,84.885422 
	C112.055504,88.998322 110.987213,93.111221 109.956940,97.553398 
	C109.413712,97.808502 108.832474,97.734337 108.070465,96.928024 
	C107.881966,92.121925 107.678024,88.033661 107.973618,83.981827 
	C108.076157,82.576294 109.417030,81.261101 110.192299,79.904640 
	C110.521469,79.986069 110.762520,80.178101 110.973785,81.057571 
	C111.729340,82.718086 112.426567,83.801750 113.123795,84.885422 
z"/>
<path fill="#D0D0D0" opacity="1.000000" stroke="none" 
	d="
M110.102112,79.580338 
	C109.417030,81.261101 108.076157,82.576294 107.973618,83.981827 
	C107.678024,88.033661 107.881966,92.121925 107.909035,96.673004 
	C107.439163,91.044647 106.417664,84.914536 106.698441,78.844666 
	C106.827530,76.054260 108.967857,77.941025 110.102112,79.580338 
z"/>
<path fill="#DBDBDD" opacity="1.000000" stroke="none" 
	d="
M88.170181,98.377663 
	C88.770950,94.412498 88.604858,90.076530 93.536880,88.016922 
	C93.556519,90.954666 93.212914,93.905556 92.111923,96.907150 
	C90.293076,97.431129 89.231628,97.904396 88.170181,98.377663 
z"/>
<path fill="#DAC89D" opacity="1.000000" stroke="none" 
	d="
M102.942947,11.535854 
	C102.930397,11.913836 102.751869,11.938481 102.305420,11.996161 
	C100.000648,12.022444 97.963783,12.015692 95.495552,12.023526 
	C91.938393,11.906882 88.812607,11.775652 85.357979,11.417772 
	C90.945084,11.188254 96.861031,11.185386 102.942947,11.535854 
z"/>
<path fill="#DBDBDD" opacity="1.000000" stroke="none" 
	d="
M94.570419,82.855499 
	C93.798363,81.971611 93.395920,80.856834 92.991188,78.914192 
	C92.989372,75.388954 92.989845,72.691589 92.990326,69.994217 
	C93.216194,69.418785 93.442070,68.843361 93.924316,68.082916 
	C94.433815,72.806808 94.686928,77.715714 94.570419,82.855499 
z"/>
<path fill="#AB7634" opacity="1.000000" stroke="none" 
	d="
M112.003342,57.000565 
	C110.603409,59.284340 109.203476,61.568115 107.482742,63.931801 
	C107.521652,61.098114 107.881363,58.184513 108.740387,55.360550 
	C110.160912,55.966976 111.082123,56.483772 112.003342,57.000565 
z"/>
<path fill="#979398" opacity="1.000000" stroke="none" 
	d="
M55.001572,81.564377 
	C56.710625,78.207649 58.507160,75.157135 60.657951,72.059082 
	C59.640369,75.635666 58.268532,79.259796 56.810570,83.311005 
	C56.179317,83.115601 55.634186,82.493095 55.001572,81.564377 
z"/>
<path fill="#432707" opacity="1.000000" stroke="none" 
	d="
M111.984276,52.024685 
	C112.020317,52.195858 112.056358,52.367031 112.078430,53.022198 
	C112.064468,53.506187 111.974678,53.982796 111.974678,53.982796 
	C111.974678,53.982796 112.000305,54.000488 111.645554,53.999596 
	C110.833321,53.949715 110.375847,53.900734 109.918365,53.851753 
	C104.277779,53.585377 98.637184,53.319008 92.537323,53.081875 
	C91.953461,52.493633 91.828873,51.876160 91.935585,51.104156 
	C94.494865,51.287701 96.822838,51.625771 99.563477,51.902901 
	C101.343979,51.871563 102.711823,51.901169 104.930145,51.940022 
	C107.848511,51.974407 109.916389,51.999546 111.984276,52.024685 
z"/>
<path fill="#180E08" opacity="1.000000" stroke="none" 
	d="
M134.187347,35.330376 
	C134.178802,34.749294 134.170258,34.168209 134.119202,33.297920 
	C135.411423,35.392170 136.746140,37.775635 138.067200,40.559559 
	C138.053543,40.960022 137.951340,41.040287 137.728638,40.936066 
	C137.256653,40.608276 137.072876,40.339870 136.937820,39.673630 
	C136.009827,37.990543 135.098587,36.660458 134.187347,35.330376 
z"/>
<path fill="#4F4F4F" opacity="1.000000" stroke="none" 
	d="
M88.227264,98.593071 
	C89.231628,97.904396 90.293076,97.431129 91.705170,97.030914 
	C92.038361,97.767792 92.020912,98.431625 92.054100,99.428146 
	C91.034439,99.806587 89.964149,99.852333 88.502350,99.785484 
	C88.257477,99.402573 88.315315,99.114441 88.227264,98.593071 
z"/>
<path fill="#A97535" opacity="1.000000" stroke="none" 
	d="
M109.690430,53.949734 
	C110.375847,53.900734 110.833321,53.949715 111.637070,53.986565 
	C111.990746,54.731014 111.998146,55.487598 112.004440,56.622375 
	C111.082123,56.483772 110.160912,55.966976 109.087921,55.154335 
	C108.985420,54.506306 109.160873,54.236050 109.690430,53.949734 
z"/>
<path fill="#180E08" opacity="1.000000" stroke="none" 
	d="
M138.106079,40.921814 
	C138.800262,42.629242 139.441895,44.374878 140.147446,46.468822 
	C140.211365,46.817135 140.028259,46.964020 139.718033,46.751808 
	C138.922318,44.706490 138.436829,42.873390 137.951324,41.040291 
	C137.951340,41.040287 138.053543,40.960022 138.106079,40.921814 
z"/>
<path fill="#D0D0D0" opacity="1.000000" stroke="none" 
	d="
M113.386917,84.898743 
	C112.426567,83.801750 111.729340,82.718086 111.029251,81.288139 
	C112.017982,82.058487 113.009583,83.175102 114.089073,84.603554 
	C114.001328,84.914291 113.825684,84.913185 113.386917,84.898743 
z"/>
<path fill="#9B999E" opacity="1.000000" stroke="none" 
	d="
M62.947525,67.302628 
	C62.916779,67.982407 62.713459,68.929741 62.188824,69.905006 
	C62.169987,69.145348 62.472469,68.357765 62.947525,67.302628 
z"/>
<path fill="#D5D4D7" opacity="1.000000" stroke="none" 
	d="
M81.003662,100.010757 
	C80.994263,100.209961 80.984856,100.409164 80.938492,100.905212 
	C80.327950,101.031944 79.754349,100.861832 79.060791,100.413536 
	C79.142082,99.847702 79.343338,99.560043 79.978287,99.254471 
	C80.677246,99.442635 80.874474,99.700699 81.003662,100.010757 
z"/>
<path fill="#DAC89D" opacity="1.000000" stroke="none" 
	d="
M82.961609,12.858316 
	C82.434097,12.907950 81.926079,12.743654 81.233368,12.380189 
	C81.537132,12.022885 82.025597,11.864752 82.768509,11.747803 
	C83.030479,12.075170 83.016533,12.360303 82.961609,12.858316 
z"/>
<path fill="#180E08" opacity="1.000000" stroke="none" 
	d="
M133.974152,32.657349 
	C133.685516,32.504635 133.372513,32.059525 132.999756,31.317781 
	C133.276596,31.469082 133.613190,31.917017 133.974152,32.657349 
z"/>
<path fill="#A5A1A4" opacity="1.000000" stroke="none" 
	d="
M59.531414,67.807724 
	C59.204971,67.928574 58.806789,67.733376 58.197102,67.281937 
	C58.160667,67.021072 58.335732,67.016464 58.773430,67.006470 
	C59.177265,67.164619 59.318470,67.328148 59.531414,67.807724 
z"/>
<path fill="#9E692B" opacity="1.000000" stroke="none" 
	d="
M127.311485,24.480080 
	C127.136688,24.536371 126.919258,24.393513 126.832886,24.130760 
	C126.963936,24.010866 127.268860,24.280928 127.311485,24.480080 
z"/>
<path fill="#BB8942" opacity="1.000000" stroke="none" 
	d="
M123.757004,21.025589 
	C123.787445,21.436749 123.612122,21.667944 123.186691,21.700756 
	C122.987381,21.366032 122.986412,21.190437 122.985435,21.014843 
	C122.985435,21.014843 123.092659,20.898716 123.145721,20.840105 
	C123.198792,20.781494 123.603004,20.884874 123.757004,21.025589 
z"/>
<path fill="#B2AFB3" opacity="1.000000" stroke="none" 
	d="
M64.606430,92.371765 
	C64.839470,92.271431 65.228775,92.472282 65.790939,92.956749 
	C65.563431,93.051224 65.163071,92.862083 64.606430,92.371765 
z"/>
<path fill="#010101" opacity="1.000000" stroke="none" 
	d="
M64.710815,28.546343 
	C64.685654,28.778799 64.494156,28.817118 64.302650,28.855434 
	C64.383263,28.687691 64.463867,28.519949 64.710815,28.546343 
z"/>
<path fill="#B2AFB3" opacity="1.000000" stroke="none" 
	d="
M71.343048,95.925354 
	C70.738159,95.040154 69.979416,93.876259 70.281891,93.161369 
	C73.823883,84.790092 77.525330,76.486275 81.525581,68.159492 
	C81.408531,78.467697 77.367607,87.463768 71.343048,95.925354 
z"/>
<path fill="#A97535" opacity="1.000000" stroke="none" 
	d="
M122.624954,21.026661 
	C122.986412,21.190437 122.987381,21.366032 122.994522,21.805679 
	C117.727135,30.805302 112.450890,39.539253 107.186554,48.280380 
	C106.865929,48.812778 106.639732,49.402054 106.040680,50.650139 
	C108.083168,50.789116 109.637856,50.894905 111.594223,51.008163 
	C111.995361,51.183819 111.994843,51.352001 111.989304,51.772438 
	C109.916389,51.999546 107.848511,51.974407 105.338593,51.885506 
	C104.076355,51.293926 103.256142,50.766106 102.032547,49.978699 
	C107.974632,40.760910 113.857773,31.580784 119.837486,22.463997 
	C120.298752,21.760742 121.439529,21.503189 122.624954,21.026661 
z"/>
<path fill="#CD9C50" opacity="1.000000" stroke="none" 
	d="
M134.110168,35.727760 
	C135.098587,36.660458 136.009827,37.990543 136.678406,39.873505 
	C133.630127,44.215778 130.824478,48.005173 128.018845,51.794567 
	C127.268661,51.848274 126.518471,51.901978 125.395447,51.896820 
	C128.026062,46.600349 131.029526,41.362747 134.110168,35.727760 
z"/>
<path fill="#CD9C50" opacity="1.000000" stroke="none" 
	d="
M123.549438,53.083565 
	C127.872177,55.323006 127.989090,57.216728 124.310745,60.007000 
	C122.472992,61.401054 120.629112,62.787022 118.453033,64.298508 
	C119.816956,60.665417 121.515854,56.910450 123.549438,53.083565 
z"/>
<path fill="#D6D5D8" opacity="1.000000" stroke="none" 
	d="
M126.365463,78.930923 
	C126.686996,75.653801 127.408913,72.314171 127.995209,68.950897 
	C128.425919,66.480125 128.679001,63.978378 128.960266,61.105179 
	C130.345734,59.755318 131.782166,58.790718 133.537933,57.714256 
	C133.354187,61.153141 133.361252,64.879982 132.212494,68.207825 
	C130.922104,71.945946 128.587830,75.323723 126.365463,78.930923 
z"/>
<path fill="#DAAB5B" opacity="1.000000" stroke="none" 
	d="
M128.476868,51.854908 
	C130.824478,48.005173 133.630127,44.215778 136.695175,40.226505 
	C137.072876,40.339870 137.256653,40.608276 137.728638,40.936066 
	C138.436829,42.873390 138.922318,44.706490 139.626495,46.825264 
	C139.845184,48.589027 139.845184,50.067120 139.845184,51.915249 
	C136.194000,51.915249 132.564438,51.915249 128.476868,51.854908 
z"/>
<path fill="#CBCBCD" opacity="1.000000" stroke="none" 
	d="
M81.334503,100.001457 
	C80.874474,99.700699 80.677246,99.442635 80.200668,99.110527 
	C84.093147,89.370773 88.196953,79.757057 92.645538,70.068787 
	C92.989845,72.691589 92.989372,75.388954 92.985352,78.534515 
	C91.373299,81.306061 89.402122,83.462303 88.237251,85.990105 
	C86.257332,90.286591 84.785149,94.817055 83.044235,99.610092 
	C82.547707,99.978050 82.106522,99.985107 81.334503,100.001457 
z"/>
<path fill="#A97535" opacity="1.000000" stroke="none" 
	d="
M112.232239,53.992104 
	C111.974678,53.982796 112.064468,53.506187 112.142464,53.276657 
	C112.468246,53.190411 112.668388,53.383167 112.913071,53.814816 
	C112.833443,54.003292 112.661629,54.002354 112.232239,53.992104 
z"/>
<path fill="#A5A1A4" opacity="1.000000" stroke="none" 
	d="
M56.990089,66.649246 
	C55.558949,69.282089 54.116760,71.573364 52.336884,73.931808 
	C52.674015,71.336700 53.097916,68.574173 54.108078,66.045876 
	C54.833336,64.230659 56.299873,63.149597 56.990089,66.649246 
z"/>
</svg>